<svg xmlns="http://www.w3.org/2000/svg" xmlns:xlink="http://www.w3.org/1999/xlink" version="1.1" id="Layer_1" x="0px" y="0px" width="100px" height="100px" viewBox="0 0 100 100" enable-background="new 0 0 100 100" xml:space="preserve">
<g>
	<path d="M669.237,537.606c-0.14,0-0.281-0.035-0.407-0.107l-11.363-6.526c-0.253-0.146-0.409-0.414-0.41-0.706l-0.03-13.105   c-0.001-0.291,0.153-0.561,0.406-0.707l11.333-6.579c0.252-0.146,0.563-0.147,0.815-0.002l11.365,6.526   c0.253,0.145,0.409,0.414,0.41,0.705l0.03,13.104c0.001,0.292-0.153,0.562-0.405,0.708l-11.335,6.58   C669.52,537.569,669.379,537.606,669.237,537.606z M658.688,529.792l10.548,6.058l10.519-6.107l-0.028-12.163l-10.548-6.057   l-10.52,6.106L658.688,529.792z"/>
</g>
<g>
	<g>
		<g>
			<g>
				<g>
					<path d="M661.262,484.052c-0.318-0.318-0.835-0.318-1.153,0s-0.318,0.835,0,1.154l8.433,8.432v-2.307L661.262,484.052z"/>
				</g>
				<g>
					<path d="M661.262,491.034c-0.318-0.318-0.835-0.318-1.153,0s-0.318,0.835,0,1.154l8.433,8.432v-2.307L661.262,491.034z"/>
				</g>
				<g>
					<path d="M661.262,497.016c-0.318-0.319-0.835-0.319-1.153,0s-0.318,0.835,0,1.153l8.433,8.433v-2.308L661.262,497.016z"/>
				</g>
				<g>
					<path d="M664.524,480.702c-0.317-0.319-0.834-0.319-1.153,0c-0.319,0.318-0.319,0.834,0,1.152l5.17,5.17v-2.307       L664.524,480.702z"/>
				</g>
			</g>
			<g>
				<g>
					<path d="M677.15,484.052c0.318-0.318,0.835-0.318,1.153,0s0.318,0.835,0,1.154l-8.433,8.432v-2.307L677.15,484.052z"/>
				</g>
				<g>
					<path d="M677.15,491.034c0.318-0.318,0.835-0.318,1.153,0s0.318,0.835,0,1.154l-8.433,8.432v-2.307L677.15,491.034z"/>
				</g>
				<g>
					<path d="M677.15,497.016c0.318-0.319,0.835-0.319,1.153,0s0.318,0.835,0,1.153l-8.433,8.433v-2.308L677.15,497.016z"/>
				</g>
				<g>
					<path d="M673.888,480.702c0.317-0.319,0.834-0.319,1.153,0c0.319,0.318,0.319,0.834,0,1.152l-5.17,5.17v-2.307L673.888,480.702       z"/>
				</g>
			</g>
		</g>
		<g>
			<path d="M670.021,480.464c0-0.252-0.365-0.455-0.815-0.455c-0.451,0-0.815,0.203-0.815,0.455v4.977l1.631,0.908V480.464z"/>
		</g>
		<path d="M669.206,479.411c-0.451,0-0.815,0.32-0.815,0.716v7.834v2.023v3.7v2.022v3.7v2.023v3.7v2.024v3.233    c0,0.396,0.364,0.716,0.815,0.716c0.45,0,0.815-0.32,0.815-0.716v-1.803v-2.023v-3.7v-2.023v-3.7v-2.023v-3.7v-2.023v-9.265    C670.021,479.731,669.656,479.411,669.206,479.411z"/>
		<circle fill="none" stroke="#000000" stroke-width="1.5" cx="669.206" cy="476.137" r="3.872"/>
	</g>
	<g>
		<g>
			<g>
				<path d="M677.151,563.318c0.318,0.318,0.835,0.318,1.153,0s0.318-0.835,0-1.154l-8.433-8.432v2.307L677.151,563.318z"/>
			</g>
			<g>
				<path d="M677.151,556.336c0.318,0.318,0.835,0.318,1.153,0s0.318-0.835,0-1.154l-8.433-8.432v2.307L677.151,556.336z"/>
			</g>
			<g>
				<path d="M677.151,550.354c0.318,0.319,0.835,0.319,1.153,0s0.318-0.835,0-1.153l-8.433-8.433v2.308L677.151,550.354z"/>
			</g>
			<g>
				<path d="M673.889,566.668c0.317,0.319,0.834,0.319,1.153,0c0.319-0.318,0.319-0.834,0-1.152l-5.17-5.17v2.307L673.889,566.668z"/>
			</g>
		</g>
		<g>
			<g>
				<path d="M661.263,563.318c-0.318,0.318-0.835,0.318-1.153,0s-0.318-0.835,0-1.154l8.433-8.432v2.307L661.263,563.318z"/>
			</g>
			<g>
				<path d="M661.263,556.336c-0.318,0.318-0.835,0.318-1.153,0s-0.318-0.835,0-1.154l8.433-8.432v2.307L661.263,556.336z"/>
			</g>
			<g>
				<path d="M661.263,550.354c-0.318,0.319-0.835,0.319-1.153,0s-0.318-0.835,0-1.153l8.433-8.433v2.308L661.263,550.354z"/>
			</g>
			<g>
				<path d="M664.525,566.668c-0.317,0.319-0.834,0.319-1.153,0c-0.319-0.318-0.319-0.834,0-1.152l5.17-5.17v2.307L664.525,566.668z      "/>
			</g>
		</g>
	</g>
	<g>
		<path d="M668.392,566.906c0,0.252,0.365,0.455,0.815,0.455c0.451,0,0.815-0.203,0.815-0.455v-4.977l-1.631-0.908V566.906z"/>
	</g>
	<path d="M669.207,567.959c0.451,0,0.815-0.32,0.815-0.716v-7.834v-2.023v-3.7v-2.022v-3.7v-2.023v-3.7v-2.024v-3.233   c0-0.396-0.364-0.716-0.815-0.716c-0.45,0-0.815,0.32-0.815,0.716v1.803v2.023v3.7v2.023v3.7v2.023v3.7v2.023v9.265   C668.392,567.639,668.757,567.959,669.207,567.959z"/>
	<circle fill="none" stroke="#000000" stroke-width="1.5" cx="669.208" cy="571.233" r="3.872"/>
</g>
<g>
	<g>
		<g>
			<g>
				<g>
					<path d="M699.476,496.895c0.114-0.436-0.145-0.882-0.58-0.997s-0.882,0.145-0.998,0.58l-3.05,11.528l1.994-1.159       L699.476,496.895z"/>
				</g>
				<g>
					<path d="M693.439,500.404c0.115-0.436-0.145-0.882-0.58-0.997s-0.882,0.145-0.998,0.58l-3.05,11.528l1.994-1.159       L693.439,500.404z"/>
				</g>
				<g>
					<path d="M688.269,503.411c0.115-0.436-0.144-0.883-0.58-0.997c-0.437-0.115-0.882,0.145-0.997,0.58l-3.051,11.528l1.994-1.16       L688.269,503.411z"/>
				</g>
				<g>
					<path d="M704.011,498.031c0.116-0.435-0.143-0.882-0.579-0.997c-0.437-0.116-0.882,0.144-0.997,0.579l-1.87,7.068l1.994-1.159       L704.011,498.031z"/>
				</g>
			</g>
			<g>
				<g>
					<path d="M707.462,510.63c0.436,0.115,0.695,0.562,0.58,0.997s-0.562,0.695-0.998,0.58l-11.528-3.052l1.994-1.159       L707.462,510.63z"/>
				</g>
				<g>
					<path d="M701.426,514.14c0.436,0.115,0.695,0.562,0.58,0.997s-0.562,0.695-0.998,0.58l-11.528-3.052l1.994-1.159       L701.426,514.14z"/>
				</g>
				<g>
					<path d="M696.255,517.146c0.437,0.114,0.696,0.562,0.58,0.997s-0.562,0.694-0.997,0.579l-11.529-3.051l1.995-1.16       L696.255,517.146z"/>
				</g>
				<g>
					<path d="M708.718,506.126c0.436,0.113,0.695,0.56,0.579,0.997c-0.114,0.436-0.561,0.695-0.996,0.579l-7.067-1.871l1.993-1.159       L708.718,506.126z"/>
				</g>
			</g>
		</g>
		<g>
			<path d="M706.98,502.664c0.218-0.127,0.209-0.545-0.017-0.935c-0.228-0.39-0.586-0.603-0.804-0.476l-4.302,2.501l0.034,1.867     L706.98,502.664z"/>
		</g>
		<path d="M707.48,501.43c-0.227-0.391-0.688-0.544-1.029-0.346l-6.771,3.938l-1.75,1.017l-3.198,1.86l-1.749,1.017l-3.198,1.86    l-1.749,1.017l-3.199,1.86l-1.75,1.018l-2.795,1.625c-0.342,0.199-0.436,0.675-0.209,1.064s0.687,0.544,1.028,0.346l1.559-0.906    l1.749-1.018l3.199-1.859l1.749-1.018l3.199-1.86l1.749-1.017l3.198-1.86l1.749-1.017l8.01-4.657    C707.613,502.295,707.707,501.818,707.48,501.43z"/>
		<circle fill="none" stroke="#000000" stroke-width="1.5" cx="710.311" cy="499.783" r="3.871"/>
	</g>
	<g>
		<g>
			<g>
				<path d="M638.938,550.476c-0.115,0.435,0.145,0.882,0.58,0.997s0.882-0.145,0.998-0.58l3.05-11.528l-1.994,1.159      L638.938,550.476z"/>
			</g>
			<g>
				<path d="M644.975,546.966c-0.115,0.435,0.145,0.882,0.579,0.997c0.436,0.115,0.882-0.145,0.998-0.58l3.05-11.528l-1.994,1.159      L644.975,546.966z"/>
			</g>
			<g>
				<path d="M650.145,543.959c-0.115,0.436,0.145,0.882,0.58,0.997c0.437,0.114,0.882-0.145,0.997-0.58l3.051-11.528l-1.995,1.16      L650.145,543.959z"/>
			</g>
			<g>
				<path d="M634.402,549.339c-0.116,0.435,0.143,0.881,0.58,0.997c0.436,0.115,0.881-0.144,0.996-0.58l1.87-7.067l-1.994,1.159      L634.402,549.339z"/>
			</g>
		</g>
		<g>
			<g>
				<path d="M630.951,536.74c-0.436-0.115-0.695-0.562-0.58-0.997c0.115-0.436,0.562-0.695,0.998-0.58l11.528,3.051l-1.994,1.16      L630.951,536.74z"/>
			</g>
			<g>
				<path d="M636.987,533.23c-0.436-0.115-0.694-0.562-0.579-0.997c0.114-0.436,0.562-0.695,0.997-0.58l11.528,3.051l-1.994,1.16      L636.987,533.23z"/>
			</g>
			<g>
				<path d="M642.158,530.224c-0.436-0.115-0.695-0.562-0.58-0.997c0.116-0.436,0.562-0.695,0.997-0.58l11.529,3.051l-1.995,1.16      L642.158,530.224z"/>
			</g>
			<g>
				<path d="M629.695,541.244c-0.436-0.113-0.695-0.561-0.579-0.997c0.114-0.436,0.561-0.695,0.996-0.579l7.067,1.87l-1.994,1.16      L629.695,541.244z"/>
			</g>
		</g>
	</g>
	<g>
		<path d="M631.434,544.706c-0.219,0.127-0.21,0.545,0.016,0.934c0.228,0.391,0.586,0.604,0.804,0.477l4.302-2.502l-0.034-1.866    L631.434,544.706z"/>
	</g>
	<path d="M630.933,545.94c0.228,0.39,0.688,0.544,1.029,0.345l6.772-3.938l1.749-1.018l3.198-1.859l1.749-1.017l3.198-1.86   l1.749-1.017l3.199-1.86l1.75-1.018l2.795-1.625c0.342-0.199,0.436-0.675,0.209-1.065c-0.227-0.389-0.687-0.544-1.028-0.345   l-1.559,0.906l-1.749,1.017l-3.199,1.86l-1.749,1.018l-3.199,1.859l-1.749,1.018l-3.198,1.859l-1.75,1.018l-8.009,4.657   C630.8,545.074,630.707,545.551,630.933,545.94z"/>
	<circle fill="none" stroke="#000000" stroke-width="1.5" cx="628.103" cy="547.587" r="3.871"/>
</g>
<g>
	<g>
		<g>
			<g>
				<g>
					<path d="M707.398,536.928c0.436-0.114,0.697-0.559,0.584-0.994c-0.113-0.437-0.559-0.698-0.995-0.586l-11.542,2.995l1.987,1.17       L707.398,536.928z"/>
				</g>
				<g>
					<path d="M701.379,533.389c0.437-0.113,0.698-0.559,0.585-0.995c-0.113-0.436-0.559-0.697-0.995-0.585l-11.543,2.995       l1.988,1.169L701.379,533.389z"/>
				</g>
				<g>
					<path d="M696.223,530.356c0.437-0.113,0.699-0.559,0.585-0.995c-0.113-0.437-0.559-0.697-0.994-0.584l-11.544,2.994       l1.989,1.169L696.223,530.356z"/>
				</g>
				<g>
					<path d="M708.631,541.438c0.436-0.111,0.699-0.557,0.585-0.993c-0.112-0.438-0.558-0.698-0.993-0.585l-7.077,1.836l1.988,1.17       L708.631,541.438z"/>
				</g>
			</g>
			<g>
				<g>
					<path d="M699.344,550.623c0.113,0.437-0.148,0.882-0.585,0.995c-0.436,0.113-0.882-0.149-0.995-0.586l-2.993-11.543       l1.988,1.169L699.344,550.623z"/>
				</g>
				<g>
					<path d="M693.325,547.084c0.112,0.436-0.148,0.881-0.585,0.994c-0.436,0.113-0.882-0.149-0.995-0.585l-2.993-11.544l1.988,1.17       L693.325,547.084z"/>
				</g>
				<g>
					<path d="M688.169,544.052c0.114,0.437-0.148,0.882-0.585,0.994s-0.881-0.149-0.993-0.585l-2.995-11.544l1.989,1.17       L688.169,544.052z"/>
				</g>
				<g>
					<path d="M703.885,549.51c0.114,0.435-0.146,0.88-0.585,0.993c-0.436,0.114-0.881-0.147-0.993-0.584l-1.835-7.077l1.987,1.169       L703.885,549.51z"/>
				</g>
			</g>
		</g>
		<g>
			<path d="M706.05,546.298c0.218,0.128,0.577-0.085,0.807-0.473c0.228-0.39,0.237-0.807,0.021-0.934l-4.289-2.522l-1.611,0.945     L706.05,546.298z"/>
		</g>
		<path d="M707.371,546.128c0.229-0.389,0.137-0.865-0.204-1.066l-6.753-3.97l-1.744-1.027l-3.189-1.875l-1.743-1.025l-3.19-1.875    l-1.743-1.026l-3.19-1.876l-1.744-1.025l-2.787-1.64c-0.342-0.2-0.802-0.049-1.03,0.34s-0.138,0.865,0.203,1.065l1.554,0.914    l1.744,1.025l3.189,1.877l1.745,1.025l3.189,1.876l1.744,1.025l3.189,1.875l1.743,1.026l7.987,4.696    C706.682,546.668,707.144,546.517,707.371,546.128z"/>
		<circle fill="none" stroke="#000000" stroke-width="1.5" cx="710.194" cy="547.788" r="3.872"/>
	</g>
	<g>
		<g>
			<g>
				<path d="M631.016,510.442c-0.436,0.112-0.698,0.558-0.585,0.994s0.559,0.697,0.995,0.585l11.543-2.995l-1.988-1.169      L631.016,510.442z"/>
			</g>
			<g>
				<path d="M637.035,513.982c-0.436,0.112-0.698,0.559-0.586,0.993c0.113,0.437,0.559,0.698,0.995,0.586l11.543-2.995l-1.988-1.17      L637.035,513.982z"/>
			</g>
			<g>
				<path d="M642.19,517.014c-0.437,0.113-0.698,0.559-0.585,0.994c0.115,0.437,0.559,0.698,0.995,0.585l11.543-2.994l-1.989-1.17      L642.19,517.014z"/>
			</g>
			<g>
				<path d="M629.782,505.932c-0.436,0.112-0.698,0.557-0.585,0.995c0.113,0.436,0.558,0.697,0.994,0.583l7.077-1.835l-1.988-1.17      L629.782,505.932z"/>
			</g>
		</g>
		<g>
			<g>
				<path d="M639.07,496.746c-0.113-0.436,0.148-0.882,0.584-0.994c0.437-0.113,0.882,0.149,0.995,0.585l2.994,11.544l-1.989-1.169      L639.07,496.746z"/>
			</g>
			<g>
				<path d="M645.089,500.286c-0.113-0.437,0.149-0.881,0.585-0.994s0.881,0.148,0.994,0.585l2.994,11.543l-1.988-1.169      L645.089,500.286z"/>
			</g>
			<g>
				<path d="M650.245,503.318c-0.113-0.437,0.148-0.882,0.584-0.995c0.437-0.112,0.882,0.149,0.995,0.585l2.994,11.544l-1.989-1.17      L650.245,503.318z"/>
			</g>
			<g>
				<path d="M634.529,497.86c-0.115-0.435,0.147-0.881,0.584-0.993c0.437-0.114,0.881,0.147,0.994,0.584l1.835,7.076l-1.988-1.169      L634.529,497.86z"/>
			</g>
		</g>
	</g>
	<g>
		<path d="M632.364,501.073c-0.218-0.129-0.578,0.084-0.806,0.472c-0.229,0.39-0.239,0.806-0.021,0.934l4.29,2.522l1.609-0.945    L632.364,501.073z"/>
	</g>
	<path d="M631.043,501.241c-0.229,0.39-0.137,0.866,0.204,1.066l6.753,3.972l1.744,1.025l3.188,1.876l1.744,1.025l3.189,1.875   l1.743,1.025l3.19,1.876l1.745,1.026l2.787,1.64c0.341,0.2,0.801,0.048,1.03-0.341c0.228-0.388,0.138-0.865-0.204-1.065   l-1.554-0.914l-1.743-1.025l-3.19-1.876l-1.744-1.025l-3.189-1.876l-1.745-1.025l-3.188-1.876l-1.745-1.026l-7.985-4.695   C631.732,500.701,631.271,500.854,631.043,501.241z"/>
	<circle fill="none" stroke="#000000" stroke-width="1.5" cx="628.22" cy="499.583" r="3.872"/>
</g>
<path d="M90.879,68.809c-0.656-0.387-1.405-0.591-2.166-0.591c-1.254,0-2.436,0.563-3.242,1.498L83.6,68.615l-1.233-0.724  l4.898-1.272c0.402-0.104,0.647-0.516,0.541-0.92c-0.104-0.405-0.517-0.646-0.919-0.541l-6.361,1.65l-0.867-0.51l-1.615-0.951  l-0.954-0.561l9.034-2.343c0.403-0.105,0.646-0.518,0.541-0.921c-0.104-0.403-0.518-0.646-0.921-0.543l-10.495,2.724l-0.157-0.093  l-1.613-0.948l-1.962-1.153l9.035-2.342c0.404-0.105,0.646-0.517,0.542-0.922c-0.104-0.402-0.518-0.645-0.921-0.541l-10.495,2.724  l-0.767-0.451l-2.166-1.274l9.033-2.343c0.405-0.104,0.647-0.517,0.542-0.92c-0.104-0.405-0.517-0.646-0.921-0.541l-10.495,2.722  l-0.562-0.33l-2.299-1.352l-0.026-11.422l1.214-0.706l1.62-0.942l0.089-0.052l10.482,2.774c0.402,0.106,0.815-0.133,0.923-0.536  c0.108-0.403-0.133-0.817-0.537-0.923l-9.021-2.389l1.025-0.596l1.619-0.942l0.296-0.171l10.48,2.775  c0.404,0.106,0.817-0.134,0.925-0.538c0.106-0.403-0.134-0.816-0.538-0.923l-9.021-2.388l0.819-0.477l1.62-0.941l1.302-0.758  l10.482,2.774c0.402,0.107,0.816-0.134,0.923-0.537c0.106-0.403-0.133-0.816-0.536-0.923l-9.023-2.388l1.432-0.832l2.016-1.172  l6.353,1.682c0.403,0.108,0.816-0.133,0.922-0.536c0.107-0.405-0.133-0.818-0.536-0.923l-4.893-1.295l3.114-1.811  c0.806,0.944,1.992,1.513,3.256,1.513c0.752,0,1.494-0.201,2.147-0.581c0.988-0.574,1.692-1.499,1.985-2.604  c0.293-1.105,0.137-2.258-0.438-3.246c-0.764-1.312-2.182-2.127-3.701-2.127c-0.753,0-1.495,0.201-2.147,0.58  c-1.815,1.057-2.556,3.25-1.861,5.159l-2.353,1.368l-0.762,0.442l1.294-4.892c0.107-0.402-0.132-0.816-0.536-0.923  c-0.403-0.107-0.816,0.133-0.923,0.536l-1.68,6.353l-0.871,0.506l-1.619,0.941l-0.957,0.556l2.388-9.021  c0.105-0.403-0.134-0.816-0.536-0.923c-0.404-0.107-0.817,0.134-0.925,0.537L74.556,35.48l-0.158,0.092l-1.619,0.941l-1.964,1.143  l2.387-9.022c0.106-0.403-0.133-0.816-0.537-0.923c-0.403-0.107-0.815,0.134-0.923,0.537l-2.773,10.481l-0.77,0.447l-2.171,1.263  l2.387-9.022c0.106-0.403-0.132-0.817-0.536-0.923c-0.405-0.106-0.816,0.134-0.923,0.538l-2.774,10.481l-0.564,0.328l-2.368,1.377  l-9.726-5.584v-1.425v-1.873v-0.103l7.668-7.667c0.295-0.294,0.295-0.771,0-1.067c-0.296-0.296-0.773-0.296-1.068,0l-6.6,6.598  v-1.186v-1.873v-0.342l7.668-7.666c0.295-0.295,0.295-0.774,0-1.068c-0.296-0.295-0.773-0.295-1.068,0l-6.6,6.599V25.61v-1.873  V22.23l7.668-7.666c0.295-0.296,0.295-0.774,0-1.069c-0.296-0.294-0.773-0.294-1.068,0l-6.6,6.6v-1.656v-2.331l4.646-4.646  c0.297-0.294,0.297-0.771,0-1.067c-0.295-0.295-0.773-0.295-1.067,0l-3.579,3.578v-3.602c1.999-0.359,3.523-2.102,3.523-4.203  c0-2.358-1.92-4.278-4.279-4.278c-2.358,0-4.277,1.919-4.277,4.278c0,2.101,1.524,3.844,3.523,4.203v3.602l-3.579-3.578  c-0.293-0.295-0.771-0.295-1.067,0c-0.295,0.295-0.295,0.772,0,1.067l4.646,4.646v1.007v1.873v1.107l-6.599-6.6  c-0.295-0.294-0.773-0.294-1.068,0s-0.294,0.773,0,1.069l7.667,7.666v0.183v1.872v2.273l-6.599-6.599  c-0.295-0.295-0.773-0.295-1.068,0c-0.294,0.294-0.294,0.773,0,1.068l7.667,7.666v0.89v2.511l-6.599-6.598  c-0.295-0.296-0.773-0.296-1.068,0s-0.294,0.773,0,1.067l7.667,7.667v0.652v2.719l-9.638,5.595l-1.272-0.749L37.489,41.5  l-0.089-0.052l-2.722-10.496c-0.105-0.403-0.517-0.645-0.921-0.541c-0.404,0.104-0.646,0.517-0.541,0.921l2.343,9.033l-1.023-0.601  l-1.614-0.949l-0.294-0.173l-2.723-10.495c-0.104-0.404-0.517-0.646-0.92-0.542c-0.403,0.105-0.646,0.517-0.542,0.921l2.344,9.034  l-0.818-0.481l-1.615-0.949l-1.297-0.763l-2.723-10.497c-0.105-0.403-0.517-0.646-0.921-0.542c-0.403,0.104-0.645,0.518-0.541,0.92  l2.343,9.034l-1.428-0.84l-2.008-1.18L20.128,25.9c-0.105-0.404-0.516-0.646-0.92-0.541c-0.404,0.104-0.647,0.517-0.541,0.919  l1.27,4.899l-3.105-1.826c0.704-1.904-0.026-4.102-1.837-5.167c-0.657-0.387-1.406-0.591-2.165-0.591  c-1.512,0-2.926,0.808-3.691,2.11c-1.195,2.033-0.514,4.66,1.52,5.856c0.657,0.387,1.406,0.591,2.165,0.591  c1.256,0,2.438-0.564,3.243-1.499l1.32,0.776l1.784,1.05l-4.898,1.271c-0.403,0.104-0.646,0.515-0.542,0.921  c0.104,0.403,0.516,0.646,0.92,0.54l6.361-1.649l0.867,0.51l1.614,0.949l0.954,0.562l-9.034,2.343  c-0.403,0.104-0.646,0.517-0.542,0.921c0.105,0.404,0.517,0.645,0.921,0.541l10.494-2.723l0.159,0.093l1.614,0.949l1.959,1.152  l-9.033,2.344c-0.404,0.104-0.646,0.517-0.543,0.919c0.105,0.404,0.517,0.646,0.921,0.542l10.496-2.724l0.766,0.451l2.166,1.273  l-9.034,2.344c-0.404,0.104-0.646,0.517-0.541,0.92c0.106,0.404,0.517,0.646,0.921,0.542l10.496-2.723l0.562,0.33l2.297,1.352  l0.027,11.423l-1.214,0.706l-1.619,0.94l-0.089,0.052l-10.482-2.773c-0.402-0.106-0.816,0.134-0.923,0.536  c-0.106,0.404,0.134,0.816,0.538,0.924l9.021,2.387l-1.026,0.598l-1.619,0.941l-0.295,0.171l-10.482-2.773  c-0.403-0.106-0.817,0.134-0.923,0.537c-0.107,0.402,0.133,0.816,0.536,0.923l9.021,2.388l-0.819,0.477l-1.619,0.941l-1.302,0.757  l-10.481-2.773c-0.403-0.106-0.818,0.134-0.924,0.537c-0.106,0.402,0.134,0.816,0.538,0.923l9.022,2.387l-1.433,0.833l-2.014,1.173  l-6.353-1.683c-0.403-0.107-0.816,0.133-0.922,0.537c-0.108,0.403,0.132,0.817,0.536,0.922l4.893,1.296l-2.905,1.689l-0.208,0.121  c-0.805-0.943-1.994-1.514-3.256-1.514c-0.752,0-1.495,0.201-2.148,0.581c-2.039,1.186-2.733,3.81-1.548,5.849  c0.764,1.312,2.182,2.129,3.702,2.129c0.752,0,1.494-0.201,2.147-0.581c1.816-1.056,2.556-3.251,1.862-5.158l2.309-1.343  l0.804-0.468l-1.294,4.893c-0.107,0.402,0.132,0.814,0.537,0.923c0.403,0.106,0.815-0.133,0.922-0.537l1.681-6.352l0.871-0.507  l1.619-0.941l0.957-0.557l-2.388,9.022c-0.106,0.402,0.134,0.817,0.537,0.924c0.403,0.106,0.816-0.135,0.924-0.537l2.773-10.481  l0.158-0.093l1.62-0.94l1.964-1.143l-2.386,9.021c-0.106,0.402,0.134,0.816,0.536,0.923c0.403,0.106,0.816-0.133,0.924-0.536  L32.57,61.64l0.769-0.445l2.17-1.263l-2.387,9.021c-0.106,0.403,0.134,0.816,0.537,0.923c0.404,0.106,0.816-0.134,0.923-0.537  l2.774-10.481l0.564-0.328l2.367-1.376l9.727,5.587v1.422v1.874v0.103l-7.667,7.667c-0.295,0.295-0.295,0.772,0,1.068  c0.294,0.295,0.772,0.295,1.068,0l6.599-6.599v1.186v1.873v0.342l-7.667,7.666c-0.295,0.296-0.295,0.773,0,1.068  c0.294,0.296,0.772,0.296,1.068,0l6.599-6.6v0.949v1.873v1.507l-7.667,7.667c-0.295,0.295-0.295,0.773,0,1.068  c0.294,0.294,0.772,0.294,1.068,0l6.599-6.6v1.656v2.33l-4.646,4.647c-0.295,0.294-0.295,0.771,0,1.066  c0.296,0.295,0.773,0.295,1.067,0l3.579-3.578v3.602c-1.998,0.359-3.522,2.102-3.522,4.203c0,2.358,1.919,4.277,4.278,4.277  c2.358,0,4.278-1.919,4.278-4.277c0-2.102-1.525-3.845-3.524-4.203v-3.602l3.579,3.578c0.294,0.295,0.771,0.295,1.067,0  c0.297-0.295,0.297-0.772,0-1.066l-4.646-4.647v-1.006v-1.873v-1.107l6.6,6.6c0.295,0.294,0.772,0.294,1.068,0  c0.294-0.295,0.294-0.773,0-1.068l-7.668-7.667v-0.183v-1.872v-2.274l6.6,6.6c0.295,0.296,0.772,0.296,1.068,0  c0.294-0.295,0.294-0.772,0-1.068l-7.668-7.666v-0.89v-2.511l6.6,6.599c0.295,0.295,0.772,0.295,1.068,0  c0.294-0.296,0.294-0.773,0-1.068l-7.668-7.667v-0.651v-2.719l9.64-5.596l1.271,0.747l1.614,0.949l0.09,0.054l2.723,10.495  c0.104,0.402,0.515,0.646,0.92,0.542c0.403-0.104,0.646-0.517,0.541-0.921l-2.343-9.033l1.021,0.601l1.615,0.95l0.296,0.173  l2.721,10.495c0.105,0.403,0.519,0.647,0.921,0.541c0.404-0.104,0.646-0.517,0.542-0.919l-2.344-9.034l0.818,0.48l1.614,0.949  l1.299,0.764l2.721,10.495c0.105,0.404,0.519,0.647,0.921,0.542c0.405-0.104,0.646-0.517,0.542-0.921l-2.344-9.033l1.427,0.84  l2.012,1.182l1.648,6.359c0.104,0.405,0.517,0.646,0.919,0.541c0.406-0.104,0.647-0.517,0.542-0.92l-1.271-4.897l3.103,1.824  c-0.303,0.812-0.357,1.696-0.133,2.555c0.287,1.105,0.987,2.034,1.973,2.613c0.656,0.386,1.404,0.59,2.164,0.59  c1.512,0,2.926-0.809,3.692-2.109C93.593,72.632,92.912,70.004,90.879,68.809z M87.366,25.561c0.441-0.257,0.942-0.393,1.45-0.393  c1.025,0,1.985,0.551,2.501,1.438c0.388,0.667,0.492,1.446,0.295,2.192c-0.197,0.746-0.673,1.371-1.34,1.758  c-0.441,0.256-0.943,0.392-1.45,0.392c-1.027,0-1.986-0.551-2.502-1.437C85.521,28.134,85.99,26.362,87.366,25.561z M15.317,29.338  c-0.517,0.879-1.472,1.424-2.494,1.424c-0.512,0-1.017-0.138-1.461-0.399c-1.373-0.808-1.833-2.582-1.026-3.956  c0.517-0.879,1.473-1.425,2.495-1.425c0.512,0,1.017,0.138,1.461,0.398C15.665,26.189,16.125,27.965,15.317,29.338z M14.17,74.81  c-0.441,0.257-0.942,0.392-1.449,0.392c-1.027,0-1.985-0.552-2.501-1.437c-0.8-1.379-0.332-3.15,1.045-3.951  c0.441-0.257,0.943-0.392,1.45-0.392c1.027,0,1.986,0.55,2.501,1.437C16.018,72.236,15.548,74.009,14.17,74.81z M47.878,6.168  c0-1.593,1.296-2.89,2.889-2.89c1.594,0,2.891,1.296,2.891,2.89c0,1.594-1.297,2.89-2.891,2.89  C49.174,9.059,47.878,7.763,47.878,6.168z M53.659,94.202c0,1.593-1.297,2.889-2.89,2.889c-1.594,0-2.89-1.296-2.89-2.889  c0-1.594,1.296-2.891,2.89-2.891C52.362,91.312,53.659,92.608,53.659,94.202z M50.796,61.445l-9.765-5.606l-0.027-11.26l9.739-5.653  l9.764,5.607l0.026,11.259L50.796,61.445z M91.202,73.962c-0.518,0.879-1.474,1.425-2.495,1.425c-0.512,0-1.017-0.137-1.461-0.398  c-0.665-0.392-1.139-1.019-1.332-1.766c-0.194-0.748-0.086-1.526,0.306-2.19c0.518-0.879,1.474-1.426,2.493-1.426  c0.514,0,1.019,0.139,1.463,0.399C91.549,70.813,92.008,72.589,91.202,73.962z"/>
</svg>