<svg xmlns="http://www.w3.org/2000/svg" xmlns:xlink="http://www.w3.org/1999/xlink" version="1.1" id="Layer_1" x="0px" y="0px" width="100px" height="100px" viewBox="0 0 100 100" enable-background="new 0 0 100 100" xml:space="preserve">
<path fill="#000000" d="M30.714,68.256c-0.292,1.02-1.355,1.609-2.375,1.318l0,0c-1.021-0.291-1.609-1.357-1.319-2.377l4.451-15.564  c0.293-1.02,1.355-1.61,2.376-1.319l0,0c1.02,0.292,1.609,1.354,1.319,2.375L30.714,68.256z"/>
<path fill="#000000" d="M11.827,68.256c-0.292,1.02-1.356,1.609-2.375,1.318l0,0c-1.02-0.291-1.609-1.357-1.318-2.377l4.452-15.564  c0.292-1.02,1.355-1.61,2.376-1.319l0,0c1.02,0.292,1.609,1.354,1.319,2.375L11.827,68.256z"/>
<path fill="#000000" d="M68.009,68.256c-0.291,1.02-1.355,1.609-2.373,1.318l0,0c-1.02-0.291-1.613-1.357-1.318-2.377l4.451-15.564  c0.291-1.02,1.355-1.61,2.373-1.319l0,0c1.021,0.292,1.609,1.354,1.32,2.375L68.009,68.256z"/>
<path fill="#000000" d="M86.657,68.256c-0.291,1.02-1.355,1.609-2.375,1.318l0,0c-1.021-0.291-1.613-1.357-1.32-2.377l4.453-15.564  c0.295-1.02,1.357-1.61,2.375-1.319l0,0c1.02,0.292,1.611,1.354,1.318,2.375L86.657,68.256z"/>
<path fill="#000000" d="M17.503,89.533c-0.291,1.018-1.354,1.609-2.374,1.318l0,0c-1.019-0.293-1.61-1.355-1.317-2.375l4.452-15.566  c0.292-1.02,1.356-1.611,2.375-1.318l0,0c1.02,0.289,1.611,1.355,1.318,2.377L17.503,89.533z"/>
<path fill="#000000" d="M36.151,89.533c-0.29,1.018-1.355,1.607-2.374,1.318l0,0c-1.02-0.293-1.61-1.355-1.319-2.375l4.453-15.566  c0.292-1.02,1.356-1.611,2.376-1.32l0,0c1.02,0.291,1.609,1.355,1.319,2.379L36.151,89.533z"/>
<path fill="#000000" d="M73.448,89.533c-0.293,1.018-1.357,1.607-2.375,1.318l0,0c-1.02-0.293-1.611-1.355-1.318-2.375l4.451-15.566  c0.289-1.02,1.354-1.611,2.375-1.32l0,0c1.02,0.291,1.611,1.357,1.32,2.379L73.448,89.533z"/>
<path fill="#000000" d="M78.64,22.65c-2.154,0-4.227,0.343-6.168,0.975C69.938,14.671,61.704,8.111,51.938,8.111  c-6.956,0-13.138,3.331-17.03,8.485c-3.507-2.525-7.809-4.016-12.46-4.016c-11.785,0-21.337,9.553-21.337,21.338  c0,4.691,1.516,9.026,4.08,12.549h39.142l-5.333,18.364l10.65-0.082L43.96,92.139l20.229-35.244h-7.848l3.183-10.427h38.6  c0.254-1.273,0.393-2.592,0.393-3.942C98.517,31.548,89.614,22.65,78.64,22.65z"/>
</svg>